<?xml version="1.0" encoding="utf-8"?><!-- Uploaded to: SVG Repo, www.svgrepo.com, Generator: SVG Repo Mixer Tools -->
<svg fill="#000000" width="800px" height="800px" viewBox="0 0 24 24" id="mobile-payment-dollar" data-name="Flat Color" xmlns="http://www.w3.org/2000/svg" class="icon flat-color"><rect id="primary" x="4" y="2" width="14" height="20" rx="2" style="fill: rgb(0, 0, 0);"></rect><path id="secondary" d="M20,15.5A2.5,2.5,0,0,1,18,18V18a1,1,0,0,1-2,0H15a1,1,0,0,1,0-2h2.5a.5.5,0,0,0,0-1h-1a2.5,2.5,0,0,1-.5-4.95V10a1,1,0,0,1,2,0h1a1,1,0,0,1,0,2H16.5a.5.5,0,0,0,0,1h1A2.5,2.5,0,0,1,20,15.5ZM8,2l.31,1.24a1,1,0,0,0,1,.76h3.44a1,1,0,0,0,1-.76L14,2" style="fill: rgb(44, 169, 188);"></path></svg>